<svg width="24" height="24" viewBox="0 0 24 24" fill="none" xmlns="http://www.w3.org/2000/svg">
<path d="M6.29721 11.36L17.6089 4.44732C17.7226 4.37784 17.8527 4.3399 17.986 4.33741C18.1192 4.33492 18.2507 4.36796 18.3669 4.43313C18.4831 4.49831 18.5798 4.59327 18.6472 4.70824C18.7145 4.82321 18.75 4.95404 18.75 5.08728V18.9127C18.75 19.0459 18.7145 19.1768 18.6472 19.2917C18.5798 19.4067 18.4831 19.5017 18.3669 19.5668C18.2507 19.632 18.1192 19.6651 17.986 19.6626C17.8527 19.6601 17.7226 19.6221 17.6089 19.5527L6.29721 12.6399C6.18758 12.573 6.09699 12.4789 6.03415 12.3669C5.9713 12.2548 5.93829 12.1285 5.93829 12C5.93829 11.8715 5.9713 11.7452 6.03415 11.6331C6.09699 11.5211 6.18758 11.427 6.29721 11.36Z" stroke="#0E6D5E" stroke-width="2" stroke-linecap="round" stroke-linejoin="round"/>
<path d="M5.25 3.75V20.25" stroke="#0E6D5E" stroke-width="2" stroke-linecap="round" stroke-linejoin="round"/>
</svg>
