<svg width="24" height="24" viewBox="0 0 24 24" fill="none" xmlns="http://www.w3.org/2000/svg">
<path d="M18.75 3.75H15.375C14.9608 3.75 14.625 4.08579 14.625 4.5V19.5C14.625 19.9142 14.9608 20.25 15.375 20.25H18.75C19.1642 20.25 19.5 19.9142 19.5 19.5V4.5C19.5 4.08579 19.1642 3.75 18.75 3.75Z" stroke="#0E6D5E" stroke-width="2" stroke-linecap="round" stroke-linejoin="round"/>
<path d="M8.29889 4.17395H4.92389C4.50968 4.17395 4.17389 4.50974 4.17389 4.92395V19.924C4.17389 20.3382 4.50968 20.674 4.92389 20.674H8.29889C8.7131 20.674 9.04889 20.3382 9.04889 19.924V4.92395C9.04889 4.50974 8.7131 4.17395 8.29889 4.17395Z" stroke="#0E6D5E" stroke-width="2" stroke-linecap="round" stroke-linejoin="round"/>
</svg>
